<svg width="30" height="30" viewBox="0 0 30 30" fill="none" xmlns="http://www.w3.org/2000/svg">
<path d="M16.4699 0.0685631C12.9152 -0.271284 9.35505 0.659749 6.42705 2.69493C3.49904 4.73011 1.39441 7.73651 0.490057 11.1757C-0.414298 14.6149 -0.0593084 18.2624 1.49145 21.4648C3.04222 24.6672 5.68746 27.2154 8.95346 28.6531C10.8449 29.5046 12.891 29.9629 14.9666 30C18.2708 30.0003 21.483 28.9168 24.1065 26.9171C24.4232 26.6767 24.6311 26.3211 24.6846 25.9283C24.7382 25.5355 24.633 25.1375 24.3922 24.8219C24.2725 24.6636 24.1225 24.5306 23.9508 24.4306C23.7791 24.3305 23.5892 24.2654 23.392 24.2389C23.1948 24.2125 22.9944 24.2252 22.8022 24.2765C22.61 24.3278 22.43 24.4165 22.2725 24.5375C20.7134 25.7099 18.8909 26.4865 16.9625 26.8001C15.0342 27.1136 13.0582 26.9547 11.2054 26.3371C9.3526 25.7195 7.67888 24.6617 6.32903 23.2554C4.97917 21.849 3.99384 20.1365 3.45827 18.2658C2.92271 16.3951 2.85304 14.4227 3.25531 12.5192C3.65757 10.6157 4.51964 8.83843 5.76694 7.34117C7.01424 5.84391 8.60921 4.67175 10.4138 3.9261C12.2185 3.18044 14.1784 2.88376 16.1241 3.06171C19.1438 3.40965 21.9265 4.86005 23.9341 7.13239C25.9418 9.40473 27.0316 12.3375 26.9928 15.3635V16.3812C26.9911 16.725 26.9198 17.0649 26.7832 17.3807C26.6466 17.6965 26.4474 17.9816 26.1977 18.2191C25.9479 18.4565 25.6527 18.6415 25.3296 18.7628C25.0064 18.8842 24.6621 18.9394 24.317 18.9254C23.6288 18.8502 22.9949 18.518 22.5429 17.9959C22.091 17.4738 21.8547 16.8005 21.8817 16.1118V9.64662C21.8817 9.24971 21.7233 8.86905 21.4414 8.58839C21.1595 8.30773 20.7771 8.15005 20.3784 8.15005C20.0114 8.14695 19.6559 8.27765 19.3789 8.51749C19.102 8.75734 18.9228 9.08976 18.8751 9.45207C17.4761 8.14044 15.6256 7.4121 13.7038 7.41673C12.3978 7.42648 11.1159 7.7689 9.98038 8.41139C8.84484 9.05388 7.89341 9.97506 7.21667 11.0872C6.53994 12.1993 6.16043 13.4654 6.11427 14.7649C6.06812 16.0644 6.35687 17.354 6.95302 18.5109C7.54917 19.6679 8.43287 20.6536 9.51999 21.3744C10.6071 22.0951 11.8615 22.5268 13.1636 22.6283C14.4657 22.7299 15.7723 22.4979 16.9589 21.9545C18.1455 21.4111 19.1726 20.5744 19.9424 19.524C20.3788 20.196 20.96 20.7628 21.6439 21.1832C22.3278 21.6037 23.0971 21.8672 23.8961 21.9546C24.6951 22.042 25.5035 21.9511 26.2628 21.6886C27.0221 21.4261 27.7131 20.9985 28.2857 20.4369C28.8367 19.915 29.2734 19.2853 29.5683 18.5874C29.8632 17.8894 30.01 17.1383 29.9994 16.3812V15.3635C30.033 11.6026 28.6708 7.96172 26.174 5.13911C23.6772 2.3165 20.2216 0.510893 16.4699 0.0685631V0.0685631ZM13.7339 19.6587C12.8152 19.6587 11.9171 19.3875 11.1532 18.8793C10.3893 18.3712 9.79393 17.649 9.44235 16.804C9.09077 15.959 8.99878 15.0292 9.17801 14.1321C9.35725 13.2351 9.79965 12.4111 10.4493 11.7643C11.0989 11.1176 11.9266 10.6772 12.8277 10.4987C13.7287 10.3203 14.6627 10.4119 15.5115 10.7619C16.3603 11.1119 17.0858 11.7046 17.5962 12.4651C18.1066 13.2256 18.379 14.1197 18.379 15.0343C18.3751 16.2595 17.8844 17.4335 17.0141 18.2999C16.1439 19.1663 14.9646 19.6547 13.7339 19.6587V19.6587Z" fill="#708CA6"/>
</svg>
