<svg width="31" height="30" viewBox="0 0 31 30" fill="none" xmlns="http://www.w3.org/2000/svg">
<path d="M15.501 0.000961164C6.93765 0.000961164 0 6.88972 0 15.3798C0 22.1782 4.44103 27.9405 10.5959 29.9733C11.3738 30.1185 11.6548 29.6427 11.6548 29.2313C11.6548 28.8661 11.6461 27.9001 11.6403 26.6179C7.32615 27.5444 6.4174 24.5504 6.4174 24.5504C5.71114 22.778 4.69195 22.3022 4.69195 22.3022C3.28911 21.3516 4.80336 21.3718 4.80336 21.3718C6.35734 21.4765 7.17501 22.9529 7.17501 22.9529C8.5575 25.3059 10.8022 24.6254 11.6906 24.2293C11.8263 23.2384 12.2303 22.5569 12.6701 22.1772C9.22889 21.7918 5.61038 20.4702 5.61038 14.5772C5.61038 12.8942 6.21104 11.5235 7.20408 10.447C7.0326 10.0616 6.5075 8.49488 7.34068 6.37645C7.34068 6.37645 8.63792 5.96602 11.6034 7.95374C12.8445 7.61252 14.1621 7.44239 15.4787 7.43374C16.7963 7.44239 18.1129 7.61348 19.3539 7.95374C22.302 5.96602 23.5983 6.37645 23.5983 6.37645C24.4305 8.49488 23.9054 10.0606 23.7543 10.447C24.7376 11.5235 25.3383 12.8951 25.3383 14.5772C25.3383 20.4836 21.7149 21.786 18.2698 22.1619C18.8085 22.6223 19.3132 23.569 19.3132 25.006C19.3132 27.0629 19.2939 28.72 19.2939 29.2207C19.2939 29.6206 19.5651 30.1012 20.3634 29.9464C26.5638 27.9347 31 22.1676 31 15.3788C31 6.88875 24.0623 0 15.499 0L15.501 0.000961164Z" fill="#708CA6"/>
</svg>
