<svg width="33" height="31" viewBox="0 0 33 31" fill="none" xmlns="http://www.w3.org/2000/svg">
<path d="M1.0716 30.1445H5.36167C5.95353 30.1445 6.43327 29.6647 6.43327 29.0728V10.3211C6.43327 9.72914 5.95353 9.24945 5.36167 9.24945H1.0716C0.479685 9.24945 0 9.72914 0 10.3211V29.0728C0 29.6646 0.479685 30.1445 1.0716 30.1445Z" fill="#708CA6"/>
<path d="M1.0716 5.95281H5.36167C5.95353 5.95281 6.43327 5.47307 6.43327 4.88121V1.0716C6.43327 0.479745 5.95353 0 5.36167 0H1.0716C0.479685 0 0 0.479745 0 1.0716V4.88121C0 5.47307 0.479685 5.95281 1.0716 5.95281Z" fill="#708CA6"/>
<path d="M31.3858 11.4245C30.783 10.6309 29.8941 9.97835 28.7187 9.46685C27.5433 8.9557 26.246 8.69995 24.8265 8.69995C21.9449 8.69995 19.5032 9.79967 17.5014 11.9995C17.1031 12.4373 16.8135 12.3416 16.8135 11.7496V10.3211C16.8135 9.72917 16.3337 9.24948 15.7418 9.24948H11.9096C11.3177 9.24948 10.838 9.72917 10.838 10.3211V29.0729C10.838 29.6647 11.3178 30.1445 11.9096 30.1445H16.1997C16.7916 30.1445 17.2713 29.6647 17.2713 29.0729V22.5515C17.2713 19.8347 17.4353 17.9725 17.7634 16.9652C18.0914 15.9579 18.6983 15.149 19.5836 14.5384C20.4689 13.9279 21.4685 13.6225 22.5829 13.6225C23.4528 13.6225 24.197 13.8362 24.8152 14.2637C25.4334 14.6911 25.8799 15.2899 26.1546 16.0609C26.4295 16.8317 26.5668 18.5297 26.5668 21.155V29.0728C26.5668 29.6647 27.0465 30.1445 27.6383 30.1445H31.9284C32.5203 30.1445 32.9999 29.6647 32.9999 29.0728V18.4533C32.9999 16.5761 32.8816 15.1336 32.6453 14.1263C32.4089 13.119 31.989 12.2184 31.3858 11.4245Z" fill="#708CA6"/>
</svg>
